# xmcd
#
# Track frame offsets:
#	150
#	12811
#	25770
#	38953
#	52396
#	66546
#	80882
#	95516
#	110485
#	125499
#	141213
#	157225
#	173311
#	190290
#	207977
#	226148
#	244429
#	262711
#	281068
#	299834
#	318714
#	338002
#	348505
#
# Disc length: 4799 seconds
#
# Revision: 0
# Processed by: cddbd v1.5.2PL0 Copyright (c) Steve Scherf et al.
# Submitted via: dBpowerAMP V4.0
#
DISCID=6a12bd17
DTITLE=APO Hiking Society - Pinoy na Pinoy
DYEAR=1900
DGENRE=Folk-Rock
TTITLE0=Pumapatak Ang Ulan
TTITLE1=Ewan
TTITLE2=Love is For Singing
TTITLE3=Yakap Sa Dilim
TTITLE4=Pag-ibig
TTITLE5=Doobi Doo
TTITLE6=Bawat Bata
TTITLE7=When I Met You
TTITLE8=Huwag Masanay sa Pagmamahal
TTITLE9=Panalangin
TTITLE10=Awit ng Barkada
TTITLE11=Salawikain
TTITLE12=Princesa
TTITLE13=Batang-Bata Ka Pa
TTITLE14=Kabilugan Ng Buwan
TTITLE15=Paano
TTITLE16=Lumang Tugtugin
TTITLE17=Kaibigan
TTITLE18=Syotang Pa-Class
TTITLE19=San Na Nga Ba Ang Barkada
TTITLE20=Show Me A Smile
TTITLE21=Mahirap Magmahal Ng Syota Ng Iba
TTITLE22=Tuyo sa Damdamin
EXTD=APO Pinoy na Pinoy
EXTT0=
EXTT1=
EXTT2=
EXTT3=
EXTT4=
EXTT5=
EXTT6=
EXTT7=
EXTT8=
EXTT9=
EXTT10=
EXTT11=
EXTT12=
EXTT13=
EXTT14=
EXTT15=
EXTT16=
EXTT17=
EXTT18=
EXTT19=
EXTT20=
EXTT21=
EXTT22=
PLAYORDER=
